{"title":"Lost S01E17 - AVM","uid":5044061,"size":143984255,"categoryP":"video","categoryS":"tv_shows","magnet":"?xt=urn:btih:1c872bc8a467a5217d8b0821e8565cf025e17ec5&amp;dn=Lost+S01E17+-+AVM&amp;tr=udp%3A%2F%2Ftracker.openbittorrent.com%3A80&amp;tr=udp%3A%2F%2Fopen.demonii.com%3A1337&amp;tr=udp%3A%2F%2Ftracker.coppersurfer.tk%3A6969&amp;tr=udp%3A%2F%2Fexodus.desync.com%3A6969","seeders":1,"leechers":1,"uploader":"SysProfile","files":1,"time":1249535391,"description":"AVIDMobile - http://www.avidmobile.com.ar (Mobile media)\n\nVideo\nID                               : 1\nFormat                           : MPEG-4 Visual\nFormat profile                   : Simple@L1\nFormat settings, BVOP            : No\nFormat settings, QPel            : No\nFormat settings, GMC             : No warppoints\nFormat settings, Matrix          : Default (H.263)\nCodec ID                         : 20\nDuration                         : 43mn 4s\nBit rate mode                    : Variable\nBit rate                         : 377 Kbps\nMaximum bit rate                 : 2 504 Kbps\nWidth                            : 320 pixels\nHeight                           : 240 pixels\nDisplay aspect ratio             : 4/3\nFrame rate mode                  : Variable\nFrame rate                       : 23.976 fps\nMinimum frame rate               : 23.974 fps\nMaximum frame rate               : 23.981 fps\nResolution                       : 24 bits\nColorimetry                      : 4:2:0\nScan type                        : Progressive\nBits/(Pixel*Frame)               : 0.205\nStream size                      : 116 MiB (85%)\n\nAudio\nID                               : 2\nFormat                           : AAC\nFormat/Info                      : Advanced Audio Codec\nFormat version                   : Version 4\nFormat profile                   : LC\nFormat settings, SBR             : No\nCodec ID                         : 40\nDuration                         : 43mn 4s\nBit rate mode                    : Variable\nBit rate                         : 66.15 Kbps\nMaximum bit rate                 : 98.0 Kbps\nChannel(s)                       : 2 channels\nChannel positions                : L R\nSampling rate                    : 22.05 KHz\nResolution                       : 16 bits\nStream size                      : 20.5 MiB (15%)\n","torrent":{"xt":"urn:btih:1c872bc8a467a5217d8b0821e8565cf025e17ec5","amp;dn":"Lost+S01E17+-+AVM","amp;tr":["udp%3A%2F%2Ftracker.openbittorrent.com%3A80","udp%3A%2F%2Fopen.demonii.com%3A1337","udp%3A%2F%2Ftracker.coppersurfer.tk%3A6969","udp%3A%2F%2Fexodus.desync.com%3A6969"],"infoHash":"1c872bc8a467a5217d8b0821e8565cf025e17ec5","infoHashBuffer":{"type":"Buffer","data":[28,135,43,200,164,103,165,33,125,139,8,33,232,86,92,240,37,225,126,197]},"announce":[],"urlList":[]}}